<svg id="visual" viewBox="0 0 1500 100" width="100%" height="100%" xmlns="http://www.w3.org/2000/svg" xmlns:xlink="http://www.w3.org/1999/xlink" version="1.1"><rect x="0" y="0" width="100%" height="100%" fill="#001220"></rect><defs><linearGradient id="grad1_0" x1="33.3%" y1="0%" x2="100%" y2="100%"><stop offset="20%" stop-color="#1db954" stop-opacity="1"></stop><stop offset="80%" stop-color="#1db954" stop-opacity="1"></stop></linearGradient></defs><defs><linearGradient id="grad1_1" x1="33.3%" y1="0%" x2="100%" y2="100%"><stop offset="20%" stop-color="#1db954" stop-opacity="1"></stop><stop offset="80%" stop-color="#009e69" stop-opacity="1"></stop></linearGradient></defs><defs><linearGradient id="grad1_2" x1="33.3%" y1="0%" x2="100%" y2="100%"><stop offset="20%" stop-color="#008173" stop-opacity="1"></stop><stop offset="80%" stop-color="#009e69" stop-opacity="1"></stop></linearGradient></defs><defs><linearGradient id="grad1_3" x1="33.3%" y1="0%" x2="100%" y2="100%"><stop offset="20%" stop-color="#008173" stop-opacity="1"></stop><stop offset="80%" stop-color="#00636e" stop-opacity="1"></stop></linearGradient></defs><defs><linearGradient id="grad1_4" x1="33.3%" y1="0%" x2="100%" y2="100%"><stop offset="20%" stop-color="#00465d" stop-opacity="1"></stop><stop offset="80%" stop-color="#00636e" stop-opacity="1"></stop></linearGradient></defs><defs><linearGradient id="grad1_5" x1="33.3%" y1="0%" x2="100%" y2="100%"><stop offset="20%" stop-color="#00465d" stop-opacity="1"></stop><stop offset="80%" stop-color="#002b41" stop-opacity="1"></stop></linearGradient></defs><defs><linearGradient id="grad1_6" x1="33.3%" y1="0%" x2="100%" y2="100%"><stop offset="20%" stop-color="#001220" stop-opacity="1"></stop><stop offset="80%" stop-color="#002b41" stop-opacity="1"></stop></linearGradient></defs><defs><linearGradient id="grad2_0" x1="0%" y1="0%" x2="66.7%" y2="100%"><stop offset="20%" stop-color="#1db954" stop-opacity="1"></stop><stop offset="80%" stop-color="#1db954" stop-opacity="1"></stop></linearGradient></defs><defs><linearGradient id="grad2_1" x1="0%" y1="0%" x2="66.7%" y2="100%"><stop offset="20%" stop-color="#009e69" stop-opacity="1"></stop><stop offset="80%" stop-color="#1db954" stop-opacity="1"></stop></linearGradient></defs><defs><linearGradient id="grad2_2" x1="0%" y1="0%" x2="66.7%" y2="100%"><stop offset="20%" stop-color="#009e69" stop-opacity="1"></stop><stop offset="80%" stop-color="#008173" stop-opacity="1"></stop></linearGradient></defs><defs><linearGradient id="grad2_3" x1="0%" y1="0%" x2="66.7%" y2="100%"><stop offset="20%" stop-color="#00636e" stop-opacity="1"></stop><stop offset="80%" stop-color="#008173" stop-opacity="1"></stop></linearGradient></defs><defs><linearGradient id="grad2_4" x1="0%" y1="0%" x2="66.7%" y2="100%"><stop offset="20%" stop-color="#00636e" stop-opacity="1"></stop><stop offset="80%" stop-color="#00465d" stop-opacity="1"></stop></linearGradient></defs><defs><linearGradient id="grad2_5" x1="0%" y1="0%" x2="66.7%" y2="100%"><stop offset="20%" stop-color="#002b41" stop-opacity="1"></stop><stop offset="80%" stop-color="#00465d" stop-opacity="1"></stop></linearGradient></defs><defs><linearGradient id="grad2_6" x1="0%" y1="0%" x2="66.7%" y2="100%"><stop offset="20%" stop-color="#002b41" stop-opacity="1"></stop><stop offset="80%" stop-color="#001220" stop-opacity="1"></stop></linearGradient></defs><g transform="translate(1500, 0)"><path d="M0 513.8C-87.6 497.2 -175.1 480.7 -254 439.9C-332.9 399.2 -403.1 334.3 -445 256.9C-486.8 179.5 -500.3 89.8 -513.8 0L0 0Z" fill="#001e31"></path><path d="M0 440.4C-75 426.2 -150.1 412 -217.7 377.1C-285.3 342.2 -345.5 286.5 -381.4 220.2C-417.3 153.9 -428.8 76.9 -440.4 0L0 0Z" fill="#003850"></path><path d="M0 367C-62.5 355.2 -125.1 343.3 -181.4 314.2C-237.8 285.1 -287.9 238.8 -317.8 183.5C-347.7 128.2 -357.4 64.1 -367 0L0 0Z" fill="#005567"></path><path d="M0 293.6C-50 284.1 -100.1 274.7 -145.1 251.4C-190.2 228.1 -230.3 191 -254.3 146.8C-278.2 102.6 -285.9 51.3 -293.6 0L0 0Z" fill="#007272"></path><path d="M0 220.2C-37.5 213.1 -75 206 -108.9 188.5C-142.7 171.1 -172.8 143.3 -190.7 110.1C-208.6 76.9 -214.4 38.5 -220.2 0L0 0Z" fill="#008f70"></path><path d="M0 146.8C-25 142.1 -50 137.3 -72.6 125.7C-95.1 114.1 -115.2 95.5 -127.1 73.4C-139.1 51.3 -142.9 25.6 -146.8 0L0 0Z" fill="#00ac60"></path><path d="M0 73.4C-12.5 71 -25 68.7 -36.3 62.8C-47.6 57 -57.6 47.8 -63.6 36.7C-69.5 25.6 -71.5 12.8 -73.4 0L0 0Z" fill="#1db954"></path></g><g transform="translate(0, 1000)"><path d="M0 -513.8C91.2 -501.1 182.3 -488.4 256.9 -445C331.5 -401.5 389.5 -327.3 429.5 -248C469.6 -168.7 491.7 -84.4 513.8 0L0 0Z" fill="#001e31"></path><path d="M0 -440.4C78.1 -429.5 156.3 -418.6 220.2 -381.4C284.1 -344.1 333.9 -280.5 368.2 -212.6C402.5 -144.6 421.5 -72.3 440.4 0L0 0Z" fill="#003850"></path><path d="M0 -367C65.1 -357.9 130.2 -348.9 183.5 -317.8C236.8 -286.8 278.2 -233.8 306.8 -177.1C335.4 -120.5 351.2 -60.3 367 0L0 0Z" fill="#005567"></path><path d="M0 -293.6C52.1 -286.3 104.2 -279.1 146.8 -254.3C189.4 -229.4 222.6 -187 245.5 -141.7C268.3 -96.4 281 -48.2 293.6 0L0 0Z" fill="#007272"></path><path d="M0 -220.2C39.1 -214.8 78.1 -209.3 110.1 -190.7C142.1 -172.1 166.9 -140.3 184.1 -106.3C201.3 -72.3 210.7 -36.2 220.2 0L0 0Z" fill="#008f70"></path><path d="M0 -146.8C26 -143.2 52.1 -139.5 73.4 -127.1C94.7 -114.7 111.3 -93.5 122.7 -70.9C134.2 -48.2 140.5 -24.1 146.8 0L0 0Z" fill="#00ac60"></path><path d="M0 -73.4C13 -71.6 26 -69.8 36.7 -63.6C47.4 -57.4 55.6 -46.8 61.4 -35.4C67.1 -24.1 70.2 -12.1 73.4 0L0 0Z" fill="#1db954"></path></g></svg>